<mxfile host="app.diagrams.net" modified="2025-01-18T21:00:00.000Z" agent="5.0" etag="xyz" version="24.7.17" type="device">
  <diagram name="SaaS Platform Flow" id="flowchart">
    <mxGraphModel dx="1422" dy="794" grid="1" gridSize="10" guides="1" tooltips="1" connect="1" arrows="1" fold="1" page="1" pageScale="1" pageWidth="827" pageHeight="1169" math="0" shadow="0">
      <root>
        <mxCell id="0" />
        <mxCell id="1" parent="0" />
        
        <!-- Landing Page -->
        <mxCell id="2" value="🌐 Landing Page" style="rounded=1;whiteSpace=wrap;html=1;fillColor=#e8f5e8;strokeColor=#2e7d32;fontStyle=1;fontSize=14;" vertex="1" parent="1">
          <mxGeometry x="350" y="40" width="140" height="60" as="geometry" />
        </mxCell>
        
        <!-- Login/Register -->
        <mxCell id="3" value="🔐 Login/Register" style="rounded=1;whiteSpace=wrap;html=1;fillColor=#ffebee;strokeColor=#d32f2f;fontStyle=1;fontSize=14;" vertex="1" parent="1">
          <mxGeometry x="350" y="140" width="140" height="60" as="geometry" />
        </mxCell>
        
        <!-- Dashboard -->
        <mxCell id="4" value="📊 Dashboard" style="rounded=1;whiteSpace=wrap;html=1;fillColor=#e3f2fd;strokeColor=#1565c0;fontStyle=1;fontSize=14;" vertex="1" parent="1">
          <mxGeometry x="350" y="240" width="140" height="60" as="geometry" />
        </mxCell>
        
        <!-- Main Navigation -->
        <mxCell id="5" value="👤 Profile" style="rounded=1;whiteSpace=wrap;html=1;fillColor=#f3e5f5;strokeColor=#7b1fa2;fontStyle=1;fontSize=12;" vertex="1" parent="1">
          <mxGeometry x="40" y="360" width="120" height="50" as="geometry" />
        </mxCell>
        
        <mxCell id="6" value="👥 Membership" style="rounded=1;whiteSpace=wrap;html=1;fillColor=#e0f2f1;strokeColor=#00695c;fontStyle=1;fontSize=12;" vertex="1" parent="1">
          <mxGeometry x="200" y="360" width="120" height="50" as="geometry" />
        </mxCell>
        
        <mxCell id="7" value="👥 People" style="rounded=1;whiteSpace=wrap;html=1;fillColor=#fce4ec;strokeColor=#c2185b;fontStyle=1;fontSize=12;" vertex="1" parent="1">
          <mxGeometry x="360" y="360" width="120" height="50" as="geometry" />
        </mxCell>
        
        <mxCell id="8" value="💼 Career Center" style="rounded=1;whiteSpace=wrap;html=1;fillColor=#e1f5fe;strokeColor=#0277bd;fontStyle=1;fontSize=12;" vertex="1" parent="1">
          <mxGeometry x="520" y="360" width="120" height="50" as="geometry" />
        </mxCell>
        
        <mxCell id="9" value="🌐 Browse Memberships" style="rounded=1;whiteSpace=wrap;html=1;fillColor=#fff3e0;strokeColor=#ef6c00;fontStyle=1;fontSize=12;" vertex="1" parent="1">
          <mxGeometry x="680" y="360" width="140" height="50" as="geometry" />
        </mxCell>
        
        <!-- Profile Section -->
        <mxCell id="10" value="View Profile" style="rounded=1;whiteSpace=wrap;html=1;fillColor=#f3e5f5;strokeColor=#7b1fa2;fontSize=10;" vertex="1" parent="1">
          <mxGeometry x="20" y="460" width="80" height="40" as="geometry" />
        </mxCell>
        
        <mxCell id="11" value="Edit Profile" style="rounded=1;whiteSpace=wrap;html=1;fillColor=#f3e5f5;strokeColor=#7b1fa2;fontSize=10;" vertex="1" parent="1">
          <mxGeometry x="120" y="460" width="80" height="40" as="geometry" />
        </mxCell>
        
        <mxCell id="12" value="Profile Settings" style="rounded=1;whiteSpace=wrap;html=1;fillColor=#f3e5f5;strokeColor=#7b1fa2;fontSize=10;" vertex="1" parent="1">
          <mxGeometry x="220" y="460" width="80" height="40" as="geometry" />
        </mxCell>
        
        <!-- Membership System -->
        <mxCell id="13" value="📊 Dashboard" style="rounded=1;whiteSpace=wrap;html=1;fillColor=#e0f2f1;strokeColor=#00695c;fontSize=10;" vertex="1" parent="1">
          <mxGeometry x="80" y="520" width="90" height="35" as="geometry" />
        </mxCell>
        
        <mxCell id="14" value="💳 Payments" style="rounded=1;whiteSpace=wrap;html=1;fillColor=#e0f2f1;strokeColor=#00695c;fontSize=10;" vertex="1" parent="1">
          <mxGeometry x="180" y="520" width="90" height="35" as="geometry" />
        </mxCell>
        
        <mxCell id="15" value="📋 Plans" style="rounded=1;whiteSpace=wrap;html=1;fillColor=#e0f2f1;strokeColor=#00695c;fontSize=10;" vertex="1" parent="1">
          <mxGeometry x="280" y="520" width="90" height="35" as="geometry" />
        </mxCell>
        
        <mxCell id="16" value="📝 Applications" style="rounded=1;whiteSpace=wrap;html=1;fillColor=#e0f2f1;strokeColor=#00695c;fontSize=10;" vertex="1" parent="1">
          <mxGeometry x="380" y="520" width="90" height="35" as="geometry" />
        </mxCell>
        
        <mxCell id="17" value="🎟️ Digital Card" style="rounded=1;whiteSpace=wrap;html=1;fillColor=#e0f2f1;strokeColor=#00695c;fontSize=10;" vertex="1" parent="1">
          <mxGeometry x="480" y="520" width="90" height="35" as="geometry" />
        </mxCell>
        
        <!-- Plans Management -->
        <mxCell id="18" value="📋 Plan List" style="rounded=1;whiteSpace=wrap;html=1;fillColor=#e0f2f1;strokeColor=#00695c;fontSize=9;" vertex="1" parent="1">
          <mxGeometry x="200" y="580" width="70" height="30" as="geometry" />
        </mxCell>
        
        <mxCell id="19" value="➕ Create Plan" style="rounded=1;whiteSpace=wrap;html=1;fillColor=#e0f2f1;strokeColor=#00695c;fontSize=9;" vertex="1" parent="1">
          <mxGeometry x="280" y="580" width="70" height="30" as="geometry" />
        </mxCell>
        
        <mxCell id="20" value="✏️ Edit Plan" style="rounded=1;whiteSpace=wrap;html=1;fillColor=#e0f2f1;strokeColor=#00695c;fontSize=9;" vertex="1" parent="1">
          <mxGeometry x="360" y="580" width="70" height="30" as="geometry" />
        </mxCell>
        
        <!-- Applications Management -->
        <mxCell id="21" value="📝 New Applications" style="rounded=1;whiteSpace=wrap;html=1;fillColor=#e0f2f1;strokeColor=#00695c;fontSize=9;" vertex="1" parent="1">
          <mxGeometry x="300" y="640" width="85" height="30" as="geometry" />
        </mxCell>
        
        <mxCell id="22" value="✅ Approve" style="rounded=1;whiteSpace=wrap;html=1;fillColor=#e0f2f1;strokeColor=#00695c;fontSize=9;" vertex="1" parent="1">
          <mxGeometry x="400" y="640" width="60" height="30" as="geometry" />
        </mxCell>
        
        <mxCell id="23" value="❌ Reject" style="rounded=1;whiteSpace=wrap;html=1;fillColor=#e0f2f1;strokeColor=#00695c;fontSize=9;" vertex="1" parent="1">
          <mxGeometry x="470" y="640" width="60" height="30" as="geometry" />
        </mxCell>
        
        <!-- Career Center - Individual -->
        <mxCell id="24" value="👤 Individual Dashboard" style="rounded=1;whiteSpace=wrap;html=1;fillColor=#e1f5fe;strokeColor=#0277bd;fontSize=10;" vertex="1" parent="1">
          <mxGeometry x="450" y="460" width="120" height="35" as="geometry" />
        </mxCell>
        
        <mxCell id="25" value="🏢 Company Dashboard" style="rounded=1;whiteSpace=wrap;html=1;fillColor=#e1f5fe;strokeColor=#0277bd;fontSize=10;" vertex="1" parent="1">
          <mxGeometry x="580" y="460" width="120" height="35" as="geometry" />
        </mxCell>
        
        <!-- Job Seeker Features -->
        <mxCell id="26" value="🔍 Browse Jobs" style="rounded=1;whiteSpace=wrap;html=1;fillColor=#e1f5fe;strokeColor=#0277bd;fontSize=9;" vertex="1" parent="1">
          <mxGeometry x="380" y="520" width="80" height="30" as="geometry" />
        </mxCell>
        
        <mxCell id="27" value="📝 My Applications" style="rounded=1;whiteSpace=wrap;html=1;fillColor=#e1f5fe;strokeColor=#0277bd;fontSize=9;" vertex="1" parent="1">
          <mxGeometry x="470" y="520" width="80" height="30" as="geometry" />
        </mxCell>
        
        <mxCell id="28" value="💾 Saved Jobs" style="rounded=1;whiteSpace=wrap;html=1;fillColor=#e1f5fe;strokeColor=#0277bd;fontSize=9;" vertex="1" parent="1">
          <mxGeometry x="560" y="520" width="80" height="30" as="geometry" />
        </mxCell>
        
        <!-- Job Application Flow -->
        <mxCell id="29" value="📄 Job Details" style="rounded=1;whiteSpace=wrap;html=1;fillColor=#e1f5fe;strokeColor=#0277bd;fontSize=9;" vertex="1" parent="1">
          <mxGeometry x="350" y="580" width="80" height="30" as="geometry" />
        </mxCell>
        
        <mxCell id="30" value="📝 Apply for Job" style="rounded=1;whiteSpace=wrap;html=1;fillColor=#e1f5fe;strokeColor=#0277bd;fontSize=9;" vertex="1" parent="1">
          <mxGeometry x="340" y="640" width="80" height="30" as="geometry" />
        </mxCell>
        
        <mxCell id="31" value="📎 Resume Upload" style="rounded=1;whiteSpace=wrap;html=1;fillColor=#e1f5fe;strokeColor=#0277bd;fontSize=9;" vertex="1" parent="1">
          <mxGeometry x="320" y="700" width="80" height="30" as="geometry" />
        </mxCell>
        
        <mxCell id="32" value="📤 Submit Application" style="rounded=1;whiteSpace=wrap;html=1;fillColor=#e1f5fe;strokeColor=#0277bd;fontSize=9;" vertex="1" parent="1">
          <mxGeometry x="410" y="700" width="90" height="30" as="geometry" />
        </mxCell>
        
        <!-- Company Features -->
        <mxCell id="33" value="➕ Post Job" style="rounded=1;whiteSpace=wrap;html=1;fillColor=#e1f5fe;strokeColor=#0277bd;fontSize=9;" vertex="1" parent="1">
          <mxGeometry x="580" y="520" width="70" height="30" as="geometry" />
        </mxCell>
        
        <mxCell id="34" value="📋 My Jobs" style="rounded=1;whiteSpace=wrap;html=1;fillColor=#e1f5fe;strokeColor=#0277bd;fontSize=9;" vertex="1" parent="1">
          <mxGeometry x="660" y="520" width="70" height="30" as="geometry" />
        </mxCell>
        
        <mxCell id="35" value="📝 Applications Received" style="rounded=1;whiteSpace=wrap;html=1;fillColor=#e1f5fe;strokeColor=#0277bd;fontSize=9;" vertex="1" parent="1">
          <mxGeometry x="580" y="580" width="100" height="30" as="geometry" />
        </mxCell>
        
        <!-- People/Users -->
        <mxCell id="36" value="👥 User List" style="rounded=1;whiteSpace=wrap;html=1;fillColor=#fce4ec;strokeColor=#c2185b;fontSize=9;" vertex="1" parent="1">
          <mxGeometry x="340" y="460" width="70" height="30" as="geometry" />
        </mxCell>
        
        <mxCell id="37" value="🔍 Search Users" style="rounded=1;whiteSpace=wrap;html=1;fillColor=#fce4ec;strokeColor=#c2185b;fontSize=9;" vertex="1" parent="1">
          <mxGeometry x="340" y="500" width="80" height="30" as="geometry" />
        </mxCell>
        
        <mxCell id="38" value="👤 User Profiles" style="rounded=1;whiteSpace=wrap;html=1;fillColor=#fce4ec;strokeColor=#c2185b;fontSize=9;" vertex="1" parent="1">
          <mxGeometry x="430" y="500" width="80" height="30" as="geometry" />
        </mxCell>
        
        <!-- Public Membership -->
        <mxCell id="39" value="📋 View Plans" style="rounded=1;whiteSpace=wrap;html=1;fillColor=#fff3e0;strokeColor=#ef6c00;fontSize=9;" vertex="1" parent="1">
          <mxGeometry x="680" y="460" width="70" height="30" as="geometry" />
        </mxCell>
        
        <mxCell id="40" value="📝 Apply for Membership" style="rounded=1;whiteSpace=wrap;html=1;fillColor=#fff3e0;strokeColor=#ef6c00;fontSize=9;" vertex="1" parent="1">
          <mxGeometry x="760" y="460" width="90" height="30" as="geometry" />
        </mxCell>
        
        <mxCell id="41" value="💳 Payment Process" style="rounded=1;whiteSpace=wrap;html=1;fillColor=#fff3e0;strokeColor=#ef6c00;fontSize=9;" vertex="1" parent="1">
          <mxGeometry x="720" y="520" width="80" height="30" as="geometry" />
        </mxCell>
        
        <!-- Authentication Details -->
        <mxCell id="42" value="📝 Registration Form" style="rounded=1;whiteSpace=wrap;html=1;fillColor=#ffebee;strokeColor=#d32f2f;fontSize=9;" vertex="1" parent="1">
          <mxGeometry x="250" y="140" width="80" height="30" as="geometry" />
        </mxCell>
        
        <mxCell id="43" value="📧 Email Verification" style="rounded=1;whiteSpace=wrap;html=1;fillColor=#ffebee;strokeColor=#d32f2f;fontSize=9;" vertex="1" parent="1">
          <mxGeometry x="250" y="180" width="80" height="30" as="geometry" />
        </mxCell>
        
        <mxCell id="44" value="🔒 Password Reset" style="rounded=1;whiteSpace=wrap;html=1;fillColor=#ffebee;strokeColor=#d32f2f;fontSize=9;" vertex="1" parent="1">
          <mxGeometry x="450" y="140" width="80" height="30" as="geometry" />
        </mxCell>
        
        <!-- Profile Menu -->
        <mxCell id="45" value="📋 Profile Menu" style="rounded=1;whiteSpace=wrap;html=1;fillColor=#f3e5f5;strokeColor=#7b1fa2;fontSize=10;" vertex="1" parent="1">
          <mxGeometry x="500" y="240" width="100" height="40" as="geometry" />
        </mxCell>
        
        <mxCell id="46" value="🚪 Logout" style="rounded=1;whiteSpace=wrap;html=1;fillColor=#f3e5f5;strokeColor=#7b1fa2;fontSize=9;" vertex="1" parent="1">
          <mxGeometry x="550" y="300" width="60" height="30" as="geometry" />
        </mxCell>
        
        <!-- Connections -->
        <mxCell id="edge1" style="edgeStyle=orthogonalEdgeStyle;rounded=0;orthogonalLoop=1;jettySize=auto;html=1;" edge="1" parent="1" source="2" target="3">
          <mxGeometry relative="1" as="geometry" />
        </mxCell>
        
        <mxCell id="edge2" style="edgeStyle=orthogonalEdgeStyle;rounded=0;orthogonalLoop=1;jettySize=auto;html=1;" edge="1" parent="1" source="3" target="4">
          <mxGeometry relative="1" as="geometry" />
        </mxCell>
        
        <mxCell id="edge3" style="edgeStyle=orthogonalEdgeStyle;rounded=0;orthogonalLoop=1;jettySize=auto;html=1;" edge="1" parent="1" source="4" target="5">
          <mxGeometry relative="1" as="geometry" />
        </mxCell>
        
        <mxCell id="edge4" style="edgeStyle=orthogonalEdgeStyle;rounded=0;orthogonalLoop=1;jettySize=auto;html=1;" edge="1" parent="1" source="4" target="6">
          <mxGeometry relative="1" as="geometry" />
        </mxCell>
        
        <mxCell id="edge5" style="edgeStyle=orthogonalEdgeStyle;rounded=0;orthogonalLoop=1;jettySize=auto;html=1;" edge="1" parent="1" source="4" target="7">
          <mxGeometry relative="1" as="geometry" />
        </mxCell>
        
        <mxCell id="edge6" style="edgeStyle=orthogonalEdgeStyle;rounded=0;orthogonalLoop=1;jettySize=auto;html=1;" edge="1" parent="1" source="4" target="8">
          <mxGeometry relative="1" as="geometry" />
        </mxCell>
        
        <mxCell id="edge7" style="edgeStyle=orthogonalEdgeStyle;rounded=0;orthogonalLoop=1;jettySize=auto;html=1;" edge="1" parent="1" source="2" target="9">
          <mxGeometry relative="1" as="geometry" />
        </mxCell>
        
        <mxCell id="edge8" style="edgeStyle=orthogonalEdgeStyle;rounded=0;orthogonalLoop=1;jettySize=auto;html=1;" edge="1" parent="1" source="5" target="10">
          <mxGeometry relative="1" as="geometry" />
        </mxCell>
        
        <mxCell id="edge9" style="edgeStyle=orthogonalEdgeStyle;rounded=0;orthogonalLoop=1;jettySize=auto;html=1;" edge="1" parent="1" source="5" target="11">
          <mxGeometry relative="1" as="geometry" />
        </mxCell>
        
        <mxCell id="edge10" style="edgeStyle=orthogonalEdgeStyle;rounded=0;orthogonalLoop=1;jettySize=auto;html=1;" edge="1" parent="1" source="5" target="12">
          <mxGeometry relative="1" as="geometry" />
        </mxCell>
        
        <mxCell id="edge11" style="edgeStyle=orthogonalEdgeStyle;rounded=0;orthogonalLoop=1;jettySize=auto;html=1;" edge="1" parent="1" source="6" target="13">
          <mxGeometry relative="1" as="geometry" />
        </mxCell>
        
        <mxCell id="edge12" style="edgeStyle=orthogonalEdgeStyle;rounded=0;orthogonalLoop=1;jettySize=auto;html=1;" edge="1" parent="1" source="6" target="14">
          <mxGeometry relative="1" as="geometry" />
        </mxCell>
        
        <mxCell id="edge13" style="edgeStyle=orthogonalEdgeStyle;rounded=0;orthogonalLoop=1;jettySize=auto;html=1;" edge="1" parent="1" source="6" target="15">
          <mxGeometry relative="1" as="geometry" />
        </mxCell>
        
        <mxCell id="edge14" style="edgeStyle=orthogonalEdgeStyle;rounded=0;orthogonalLoop=1;jettySize=auto;html=1;" edge="1" parent="1" source="6" target="16">
          <mxGeometry relative="1" as="geometry" />
        </mxCell>
        
        <mxCell id="edge15" style="edgeStyle=orthogonalEdgeStyle;rounded=0;orthogonalLoop=1;jettySize=auto;html=1;" edge="1" parent="1" source="6" target="17">
          <mxGeometry relative="1" as="geometry" />
        </mxCell>
        
        <mxCell id="edge16" style="edgeStyle=orthogonalEdgeStyle;rounded=0;orthogonalLoop=1;jettySize=auto;html=1;" edge="1" parent="1" source="15" target="18">
          <mxGeometry relative="1" as="geometry" />
        </mxCell>
        
        <mxCell id="edge17" style="edgeStyle=orthogonalEdgeStyle;rounded=0;orthogonalLoop=1;jettySize=auto;html=1;" edge="1" parent="1" source="15" target="19">
          <mxGeometry relative="1" as="geometry" />
        </mxCell>
        
        <mxCell id="edge18" style="edgeStyle=orthogonalEdgeStyle;rounded=0;orthogonalLoop=1;jettySize=auto;html=1;" edge="1" parent="1" source="15" target="20">
          <mxGeometry relative="1" as="geometry" />
        </mxCell>
        
        <mxCell id="edge19" style="edgeStyle=orthogonalEdgeStyle;rounded=0;orthogonalLoop=1;jettySize=auto;html=1;" edge="1" parent="1" source="16" target="21">
          <mxGeometry relative="1" as="geometry" />
        </mxCell>
        
        <mxCell id="edge20" style="edgeStyle=orthogonalEdgeStyle;rounded=0;orthogonalLoop=1;jettySize=auto;html=1;" edge="1" parent="1" source="21" target="22">
          <mxGeometry relative="1" as="geometry" />
        </mxCell>
        
        <mxCell id="edge21" style="edgeStyle=orthogonalEdgeStyle;rounded=0;orthogonalLoop=1;jettySize=auto;html=1;" edge="1" parent="1" source="21" target="23">
          <mxGeometry relative="1" as="geometry" />
        </mxCell>
        
        <mxCell id="edge22" style="edgeStyle=orthogonalEdgeStyle;rounded=0;orthogonalLoop=1;jettySize=auto;html=1;" edge="1" parent="1" source="8" target="24">
          <mxGeometry relative="1" as="geometry" />
        </mxCell>
        
        <mxCell id="edge23" style="edgeStyle=orthogonalEdgeStyle;rounded=0;orthogonalLoop=1;jettySize=auto;html=1;" edge="1" parent="1" source="8" target="25">
          <mxGeometry relative="1" as="geometry" />
        </mxCell>
        
        <mxCell id="edge24" style="edgeStyle=orthogonalEdgeStyle;rounded=0;orthogonalLoop=1;jettySize=auto;html=1;" edge="1" parent="1" source="24" target="26">
          <mxGeometry relative="1" as="geometry" />
        </mxCell>
        
        <mxCell id="edge25" style="edgeStyle=orthogonalEdgeStyle;rounded=0;orthogonalLoop=1;jettySize=auto;html=1;" edge="1" parent="1" source="24" target="27">
          <mxGeometry relative="1" as="geometry" />
        </mxCell>
        
        <mxCell id="edge26" style="edgeStyle=orthogonalEdgeStyle;rounded=0;orthogonalLoop=1;jettySize=auto;html=1;" edge="1" parent="1" source="24" target="28">
          <mxGeometry relative="1" as="geometry" />
        </mxCell>
        
        <mxCell id="edge27" style="edgeStyle=orthogonalEdgeStyle;rounded=0;orthogonalLoop=1;jettySize=auto;html=1;" edge="1" parent="1" source="26" target="29">
          <mxGeometry relative="1" as="geometry" />
        </mxCell>
        
        <mxCell id="edge28" style="edgeStyle=orthogonalEdgeStyle;rounded=0;orthogonalLoop=1;jettySize=auto;html=1;" edge="1" parent="1" source="29" target="30">
          <mxGeometry relative="1" as="geometry" />
        </mxCell>
        
        <mxCell id="edge29" style="edgeStyle=orthogonalEdgeStyle;rounded=0;orthogonalLoop=1;jettySize=auto;html=1;" edge="1" parent="1" source="30" target="31">
          <mxGeometry relative="1" as="geometry" />
        </mxCell>
        
        <mxCell id="edge30" style="edgeStyle=orthogonalEdgeStyle;rounded=0;orthogonalLoop=1;jettySize=auto;html=1;" edge="1" parent="1" source="30" target="32">
          <mxGeometry relative="1" as="geometry" />
        </mxCell>
        
        <mxCell id="edge31" style="edgeStyle=orthogonalEdgeStyle;rounded=0;orthogonalLoop=1;jettySize=auto;html=1;" edge="1" parent="1" source="25" target="33">
          <mxGeometry relative="1" as="geometry" />
        </mxCell>
        
        <mxCell id="edge32" style="edgeStyle=orthogonalEdgeStyle;rounded=0;orthogonalLoop=1;jettySize=auto;html=1;" edge="1" parent="1" source="25" target="34">
          <mxGeometry relative="1" as="geometry" />
        </mxCell>
        
        <mxCell id="edge33" style="edgeStyle=orthogonalEdgeStyle;rounded=0;orthogonalLoop=1;jettySize=auto;html=1;" edge="1" parent="1" source="25" target="35">
          <mxGeometry relative="1" as="geometry" />
        </mxCell>
        
        <mxCell id="edge34" style="edgeStyle=orthogonalEdgeStyle;rounded=0;orthogonalLoop=1;jettySize=auto;html=1;" edge="1" parent="1" source="7" target="36">
          <mxGeometry relative="1" as="geometry" />
        </mxCell>
        
        <mxCell id="edge35" style="edgeStyle=orthogonalEdgeStyle;rounded=0;orthogonalLoop=1;jettySize=auto;html=1;" edge="1" parent="1" source="7" target="37">
          <mxGeometry relative="1" as="geometry" />
        </mxCell>
        
        <mxCell id="edge36" style="edgeStyle=orthogonalEdgeStyle;rounded=0;orthogonalLoop=1;jettySize=auto;html=1;" edge="1" parent="1" source="7" target="38">
          <mxGeometry relative="1" as="geometry" />
        </mxCell>
        
        <mxCell id="edge37" style="edgeStyle=orthogonalEdgeStyle;rounded=0;orthogonalLoop=1;jettySize=auto;html=1;" edge="1" parent="1" source="9" target="39">
          <mxGeometry relative="1" as="geometry" />
        </mxCell>
        
        <mxCell id="edge38" style="edgeStyle=orthogonalEdgeStyle;rounded=0;orthogonalLoop=1;jettySize=auto;html=1;" edge="1" parent="1" source="9" target="40">
          <mxGeometry relative="1" as="geometry" />
        </mxCell>
        
        <mxCell id="edge39" style="edgeStyle=orthogonalEdgeStyle;rounded=0;orthogonalLoop=1;jettySize=auto;html=1;" edge="1" parent="1" source="40" target="41">
          <mxGeometry relative="1" as="geometry" />
        </mxCell>
        
        <mxCell id="edge40" style="edgeStyle=orthogonalEdgeStyle;rounded=0;orthogonalLoop=1;jettySize=auto;html=1;" edge="1" parent="1" source="3" target="42">
          <mxGeometry relative="1" as="geometry" />
        </mxCell>
        
        <mxCell id="edge41" style="edgeStyle=orthogonalEdgeStyle;rounded=0;orthogonalLoop=1;jettySize=auto;html=1;" edge="1" parent="1" source="3" target="43">
          <mxGeometry relative="1" as="geometry" />
        </mxCell>
        
        <mxCell id="edge42" style="edgeStyle=orthogonalEdgeStyle;rounded=0;orthogonalLoop=1;jettySize=auto;html=1;" edge="1" parent="1" source="3" target="44">
          <mxGeometry relative="1" as="geometry" />
        </mxCell>
        
        <mxCell id="edge43" style="edgeStyle=orthogonalEdgeStyle;rounded=0;orthogonalLoop=1;jettySize=auto;html=1;" edge="1" parent="1" source="4" target="45">
          <mxGeometry relative="1" as="geometry" />
        </mxCell>
        
        <mxCell id="edge44" style="edgeStyle=orthogonalEdgeStyle;rounded=0;orthogonalLoop=1;jettySize=auto;html=1;" edge="1" parent="1" source="45" target="46">
          <mxGeometry relative="1" as="geometry" />
        </mxCell>
        
      </root>
    </mxGraphModel>
  </diagram>
</mxfile>
